<svg width="188" height="24" viewBox="0 0 188 24" fill="none" xmlns="http://www.w3.org/2000/svg">
<path fill-rule="evenodd" clip-rule="evenodd" d="M7.67293 19.5418L6.01339 23.7932H0.934204L10.4947 0.552979H13.1824L22.6144 23.7932H17.5352L15.8756 19.5418H7.67293ZM11.791 8.85464L9.26541 15.1954H14.2776L11.7855 8.85464H11.791ZM32.1134 6.96081H32.3816C33.7562 6.96081 35.0637 7.24013 36.3153 7.79321C37.567 8.34628 38.556 9.10046 39.288 10.0502L36.8964 12.2736C36.3879 11.6982 35.6951 11.229 34.8234 10.8602C33.9517 10.4971 33.1471 10.3128 32.4151 10.3128H32.1469C31.3702 10.3351 30.75 10.4915 30.2862 10.7764C29.8224 11.0669 29.5878 11.4636 29.5878 11.972C29.5878 12.4356 29.7945 12.782 30.2024 12.9999C30.6103 13.2234 31.3255 13.3742 32.3425 13.4636L33.4712 13.5977C37.567 13.8826 39.612 15.6088 39.612 18.7764C39.612 20.2792 39.003 21.525 37.7849 22.5138C36.5668 23.4971 34.9519 23.9887 32.9348 23.9887H32.7671C31.13 23.9887 29.5933 23.6982 28.1517 23.1116C26.7157 22.525 25.6485 21.7541 24.9668 20.8044L27.3583 18.5474C27.8444 19.1228 28.6099 19.6033 29.6492 19.9887C30.6885 20.3742 31.7167 20.5697 32.7392 20.5697H32.9068C34.5664 20.5697 35.3989 20.0278 35.3989 18.944C35.3989 18.3239 35.1754 17.8938 34.734 17.648C34.2926 17.4021 33.5606 17.2401 32.5436 17.1507L31.6161 17.0502C27.4533 16.6982 25.3747 15.0893 25.3747 12.2345C25.3747 10.5977 26.0172 9.31276 27.3024 8.38538C28.5876 7.45801 30.1912 6.97757 32.119 6.96081H32.1134ZM59.9735 23.7932H57.1517L56.917 21.4356C55.5648 23.1395 53.7321 23.9943 51.4076 23.9943C49.0831 23.9943 47.1498 23.1731 45.6132 21.5362C44.0766 19.8993 43.3055 17.8826 43.3055 15.4971C43.3055 13.1116 44.0766 11.0893 45.6132 9.43566C47.1498 7.78762 49.0831 6.96081 51.4076 6.96081C53.7321 6.96081 55.5704 7.82112 56.917 9.55296L57.1517 7.19544H59.9735V23.7932ZM51.8043 19.9105C52.9554 19.9105 53.9556 19.5027 54.8105 18.6815C55.6654 17.8602 56.0901 16.7988 56.0901 15.4971C56.0901 14.1954 55.6654 13.1228 54.8105 12.296C53.9612 11.4636 52.9554 11.0502 51.8043 11.0502C50.6533 11.0502 49.6531 11.4636 48.7982 12.296C47.9432 13.1284 47.5186 14.1954 47.5186 15.4971C47.5186 16.7988 47.9377 17.8658 48.7814 18.6815C49.6251 19.5027 50.6309 19.9105 51.8043 19.9105ZM77.2059 23.7932L74.3506 19.3798C73.8197 18.5586 73.3504 18.0055 72.9369 17.7205C72.529 17.4356 71.9479 17.2904 71.1935 17.2904H70.0313V23.7988H65.8126V0.558571H70.0313V13.2401H71.0594C71.8138 13.2401 72.3893 13.0949 72.786 12.8099C73.1827 12.5194 73.6465 11.9664 74.1829 11.1508L76.77 7.20103H81.4525L77.7311 12.8099C76.8874 14.1172 76.1051 14.9217 75.3731 15.2345C76.1274 15.4804 76.9656 16.3071 77.8987 17.7261L81.8827 23.7988H77.2003L77.2059 23.7932ZM100.981 23.7932H98.1596L97.9249 21.4356C96.5727 23.1395 94.74 23.9943 92.4155 23.9943C90.091 23.9943 88.1577 23.1731 86.6211 21.5362C85.0845 19.8993 84.3134 17.8826 84.3134 15.4971C84.3134 13.1116 85.0845 11.0893 86.6211 9.43566C88.1577 7.78762 90.091 6.96081 92.4155 6.96081C94.74 6.96081 96.5783 7.82112 97.9249 9.55296L98.1596 7.19544H100.981V23.7932ZM92.8122 19.9105C93.9633 19.9105 94.9635 19.5027 95.8184 18.6815C96.6677 17.8602 97.098 16.7988 97.098 15.4971C97.098 14.1954 96.6733 13.1228 95.8184 12.296C94.9635 11.4636 93.9633 11.0502 92.8122 11.0502C91.6612 11.0502 90.661 11.4636 89.806 12.296C88.9511 13.1284 88.5265 14.1954 88.5265 15.4971C88.5265 16.7988 88.9455 17.8658 89.7893 18.6815C90.633 19.5027 91.6388 19.9105 92.8122 19.9105ZM110.877 0.558571V8.82671C111.961 7.58649 113.425 6.96637 115.258 6.96637C117.582 6.96637 119.51 7.79321 121.036 9.44126C122.561 11.0893 123.326 13.1116 123.326 15.5027C123.326 17.8937 122.561 19.9049 121.036 21.5418C119.51 23.1787 117.582 23.9999 115.258 23.9999C112.933 23.9999 111.084 23.1507 109.715 21.4412L109.48 23.7988H106.658V0.558571H110.877ZM117.834 12.296C116.979 11.4636 115.979 11.0502 114.828 11.0502C113.677 11.0502 112.676 11.4636 111.821 12.296C110.967 13.1284 110.542 14.1954 110.542 15.4971C110.542 16.7988 110.967 17.8658 111.821 18.6815C112.671 19.5027 113.677 19.9105 114.828 19.9105C115.979 19.9105 117.007 19.5027 117.851 18.6815C118.694 17.8602 119.113 16.7988 119.113 15.4971C119.113 14.1954 118.689 13.1228 117.834 12.296ZM143.682 23.7988H140.861L140.626 21.4412C139.274 23.1451 137.441 23.9999 135.116 23.9999C132.792 23.9999 130.859 23.1787 129.322 21.5418C127.785 19.9049 127.014 17.8882 127.014 15.5027C127.014 13.1172 127.785 11.0949 129.322 9.44126C130.859 7.79321 132.792 6.96637 135.116 6.96637C137.441 6.96637 139.279 7.82671 140.626 9.55855L140.861 7.20103H143.682V23.7988ZM135.513 19.9161C136.664 19.9161 137.664 19.5083 138.519 18.687C139.369 17.8658 139.799 16.8044 139.799 15.5027C139.799 14.201 139.374 13.1284 138.519 12.3016C137.664 11.4692 136.664 11.0558 135.513 11.0558C134.362 11.0558 133.362 11.4692 132.507 12.3016C131.658 13.134 131.227 14.201 131.227 15.5027C131.227 16.8044 131.646 17.8714 132.49 18.687C133.334 19.5083 134.34 19.9161 135.513 19.9161ZM158.194 6.96637C160.54 6.96637 162.334 7.69263 163.574 9.13956C164.815 10.5865 165.435 12.553 165.435 15.0334V23.7988H161.216V15.3016C161.216 12.4692 159.987 11.0502 157.529 11.0502C156.266 11.0502 155.294 11.4301 154.606 12.1954C153.919 12.9608 153.578 14.1172 153.578 15.6647V23.7988H149.359V7.20103H152.181L152.477 9.78762C153.628 7.90494 155.534 6.96637 158.188 6.96637H158.194ZM182.5 23.7988L179.645 19.3854C179.114 18.5641 178.644 18.0111 178.231 17.7261C177.823 17.4412 177.242 17.296 176.488 17.296H175.325V23.8043H171.107V0.564163H175.325V13.2457H176.353C177.108 13.2457 177.683 13.1005 178.08 12.8155C178.477 12.525 178.941 11.9719 179.477 11.1563L182.064 7.20662H186.746L183.025 12.8155C182.181 14.1228 181.399 14.9273 180.667 15.2401C181.421 15.4859 182.26 16.3127 183.193 17.7317L187.177 23.8043H182.494L182.5 23.7988Z" fill="#3B3B3A"/>
</svg>
