<svg width="167" height="22" viewBox="0 0 167 22" fill="none" xmlns="http://www.w3.org/2000/svg">
<path fill-rule="evenodd" clip-rule="evenodd" d="M6.76964 17.8967L5.28829 21.6916H0.754456L9.28844 0.946777H11.6875L20.1068 21.6916H15.573L14.0916 17.8967H6.76964ZM10.4456 8.35708L8.19114 14.017H12.6651L10.4406 8.35708H10.4456ZM28.5859 6.66658H28.8253C30.0523 6.66658 31.2194 6.91591 32.3367 7.4096C33.4539 7.90329 34.3367 8.5765 34.9901 9.42425L32.8554 11.409C32.4015 10.8953 31.783 10.4764 31.0049 10.1473C30.2269 9.82318 29.5086 9.65863 28.8552 9.65863H28.6158C27.9225 9.67858 27.3689 9.8182 26.9549 10.0725C26.5409 10.3318 26.3315 10.6859 26.3315 11.1397C26.3315 11.5536 26.516 11.8628 26.8801 12.0573C27.2442 12.2567 27.8826 12.3914 28.7904 12.4711L29.7979 12.5908C33.4539 12.8451 35.2794 14.3861 35.2794 17.2136C35.2794 18.555 34.7358 19.667 33.6484 20.5497C32.5611 21.4274 31.1197 21.8662 29.3191 21.8662H29.1695C27.7081 21.8662 26.3364 21.6069 25.0496 21.0833C23.7678 20.5597 22.8151 19.8715 22.2066 19.0237L24.3414 17.0091C24.7753 17.5227 25.4586 17.9516 26.3863 18.2957C27.314 18.6398 28.2318 18.8143 29.1445 18.8143H29.2942C30.7755 18.8143 31.5187 18.3306 31.5187 17.3631C31.5187 16.8096 31.3192 16.4256 30.9251 16.2062C30.5311 15.9868 29.8777 15.8422 28.97 15.7624L28.142 15.6726C24.4261 15.3585 22.5707 13.9223 22.5707 11.3741C22.5707 9.91296 23.1443 8.766 24.2915 7.93819C25.4387 7.11039 26.8701 6.68154 28.5909 6.66658H28.5859ZM53.4547 21.6916H50.9359L50.7264 19.5872C49.5193 21.1082 47.8834 21.8712 45.8085 21.8712C43.7336 21.8712 42.0078 21.1381 40.6362 19.677C39.2646 18.2159 38.5763 16.4157 38.5763 14.2863C38.5763 12.157 39.2646 10.3518 40.6362 8.87571C42.0078 7.40461 43.7336 6.66658 45.8085 6.66658C47.8834 6.66658 49.5243 7.43453 50.7264 8.98042L50.9359 6.87601H53.4547V21.6916ZM46.1626 18.2259C47.1901 18.2259 48.0829 17.8618 48.846 17.1288C49.6091 16.3957 49.9882 15.4482 49.9882 14.2863C49.9882 13.1244 49.6091 12.167 48.846 11.4289C48.0879 10.6859 47.1901 10.3169 46.1626 10.3169C45.1351 10.3169 44.2423 10.6859 43.4792 11.4289C42.7161 12.1719 42.337 13.1244 42.337 14.2863C42.337 15.4482 42.7111 16.4007 43.4643 17.1288C44.2174 17.8618 45.1152 18.2259 46.1626 18.2259ZM68.8368 21.6916L66.2881 17.7521C65.8142 17.0191 65.3952 16.5254 65.0261 16.271C64.662 16.0167 64.1433 15.8871 63.47 15.8871H62.4325V21.6966H58.6668V0.951754H62.4325V12.2717H63.3503C64.0236 12.2717 64.5374 12.142 64.8915 11.8877C65.2456 11.6284 65.6596 11.1347 66.1384 10.4066L68.4477 6.88101H72.6274L69.3056 11.8877C68.5525 13.0546 67.8542 13.7727 67.2008 14.052C67.8741 14.2714 68.6223 15.0094 69.4552 16.276L73.0115 21.6966H68.8318L68.8368 21.6916ZM90.0595 21.6916H87.5407L87.3312 19.5872C86.1242 21.1082 84.4882 21.8712 82.4133 21.8712C80.3384 21.8712 78.6127 21.1381 77.2411 19.677C75.8694 18.2159 75.1811 16.4157 75.1811 14.2863C75.1811 12.157 75.8694 10.3518 77.2411 8.87571C78.6127 7.40461 80.3384 6.66658 82.4133 6.66658C84.4882 6.66658 86.1292 7.43453 87.3312 8.98042L87.5407 6.87601H90.0595V21.6916ZM82.7675 18.2259C83.7949 18.2259 84.6877 17.8618 85.4508 17.1288C86.209 16.3957 86.593 15.4482 86.593 14.2863C86.593 13.1244 86.214 12.167 85.4508 11.4289C84.6877 10.6859 83.7949 10.3169 82.7675 10.3169C81.74 10.3169 80.8472 10.6859 80.0841 11.4289C79.3209 12.1719 78.9419 13.1244 78.9419 14.2863C78.9419 15.4482 79.3159 16.4007 80.0691 17.1288C80.8222 17.8618 81.72 18.2259 82.7675 18.2259ZM98.8927 0.951754V8.33215C99.8604 7.22509 101.167 6.67156 102.803 6.67156C104.878 6.67156 106.599 7.40961 107.96 8.8807C109.322 10.3518 110.005 12.157 110.005 14.2913C110.005 16.4256 109.322 18.2209 107.96 19.682C106.599 21.1431 104.878 21.8762 102.803 21.8762C100.728 21.8762 99.0773 21.1182 97.8553 19.5922L97.6458 21.6966H95.127V0.951754H98.8927ZM105.102 11.4289C104.339 10.6859 103.447 10.3169 102.419 10.3169C101.392 10.3169 100.499 10.6859 99.7357 11.4289C98.9725 12.1719 98.5935 13.1244 98.5935 14.2863C98.5935 15.4482 98.9725 16.4007 99.7357 17.1288C100.494 17.8618 101.392 18.2259 102.419 18.2259C103.447 18.2259 104.364 17.8618 105.117 17.1288C105.871 16.3957 106.245 15.4482 106.245 14.2863C106.245 13.1244 105.866 12.167 105.102 11.4289ZM128.176 21.6966H125.657L125.447 19.5922C124.24 21.1132 122.604 21.8762 120.529 21.8762C118.455 21.8762 116.729 21.1431 115.357 19.682C113.986 18.2209 113.297 16.4207 113.297 14.2913C113.297 12.162 113.986 10.3568 115.357 8.8807C116.729 7.40961 118.455 6.67156 120.529 6.67156C122.604 6.67156 124.245 7.43952 125.447 8.98542L125.657 6.88101H128.176V21.6966ZM120.884 18.2309C121.911 18.2309 122.804 17.8668 123.567 17.1338C124.325 16.4007 124.709 15.4532 124.709 14.2913C124.709 13.1294 124.33 12.172 123.567 11.4339C122.804 10.6909 121.911 10.3219 120.884 10.3219C119.856 10.3219 118.963 10.6909 118.2 11.4339C117.442 12.1769 117.058 13.1294 117.058 14.2913C117.058 15.4532 117.432 16.4057 118.185 17.1338C118.938 17.8668 119.836 18.2309 120.884 18.2309ZM141.129 6.67156C143.224 6.67156 144.825 7.31984 145.932 8.61141C147.039 9.90298 147.593 11.6583 147.593 13.8724V21.6966H143.827V14.1118C143.827 11.5835 142.73 10.3169 140.535 10.3169C139.408 10.3169 138.54 10.656 137.927 11.3392C137.313 12.0223 137.009 13.0546 137.009 14.4359V21.6966H133.243V6.88101H135.762L136.026 9.18987C137.054 7.50934 138.755 6.67156 141.124 6.67156H141.129ZM162.825 21.6966L160.277 17.7571C159.803 17.0241 159.384 16.5304 159.015 16.276C158.651 16.0217 158.132 15.8921 157.458 15.8921H156.421V21.7016H152.655V0.956745H156.421V12.2767H157.339C158.012 12.2767 158.526 12.147 158.88 11.8927C159.234 11.6334 159.648 11.1397 160.127 10.4116L162.436 6.886H166.616L163.294 11.8927C162.541 13.0596 161.843 13.7777 161.189 14.0569C161.863 14.2763 162.611 15.0144 163.444 16.281L167 21.7016H162.82L162.825 21.6966Z" fill="white"/>
</svg>
